<svg xmlns="http://www.w3.org/2000/svg" viewBox="0 0 64 64">
  <circle cx="32" cy="32" r="30" fill="#f0f8ff"/>
  <path d="M20 16h24c1.1 0 2 .9 2 2v4c0 1.1-.9 2-2 2H20c-1.1 0-2-.9-2-2v-4c0-1.1.9-2 2-2z" fill="#3366ff"/>
  <path d="M20 28h24c1.1 0 2 .9 2 2v4c0 1.1-.9 2-2 2H20c-1.1 0-2-.9-2-2v-4c0-1.1.9-2 2-2z" fill="#3366ff"/>
  <path d="M20 40h24c1.1 0 2 .9 2 2v4c0 1.1-.9 2-2 2H20c-1.1 0-2-.9-2-2v-4c0-1.1.9-2 2-2z" fill="#3366ff"/>
  <line x1="32" y1="24" x2="32" y2="28" stroke="#3366ff" stroke-width="2"/>
  <line x1="32" y1="36" x2="32" y2="40" stroke="#3366ff" stroke-width="2"/>
  <circle cx="32" cy="24" r="2" fill="#fff"/>
  <circle cx="32" cy="36" r="2" fill="#fff"/>
</svg>